<svg width="28" height="28" viewBox="0 0 28 28" fill="none" xmlns="http://www.w3.org/2000/svg">
<path d="M12.667 9.99999H15.3337V7.33332H12.667M14.0003 24.6667C8.12033 24.6667 3.33366 19.88 3.33366 14C3.33366 8.11999 8.12033 3.33332 14.0003 3.33332C19.8803 3.33332 24.667 8.11999 24.667 14C24.667 19.88 19.8803 24.6667 14.0003 24.6667ZM14.0003 0.666656C12.2494 0.666656 10.5156 1.01153 8.89788 1.6816C7.2802 2.35166 5.81035 3.33378 4.57223 4.5719C2.07175 7.07238 0.666992 10.4638 0.666992 14C0.666992 17.5362 2.07175 20.9276 4.57223 23.4281C5.81035 24.6662 7.2802 25.6483 8.89788 26.3184C10.5156 26.9884 12.2494 27.3333 14.0003 27.3333C17.5365 27.3333 20.9279 25.9286 23.4284 23.4281C25.9289 20.9276 27.3337 17.5362 27.3337 14C27.3337 12.249 26.9888 10.5152 26.3187 8.89754C25.6487 7.27987 24.6665 5.81001 23.4284 4.5719C22.1903 3.33378 20.7204 2.35166 19.1028 1.6816C17.4851 1.01153 15.7513 0.666656 14.0003 0.666656ZM12.667 20.6667H15.3337V12.6667H12.667V20.6667Z" fill="#141414"/>
</svg>
