<svg width="32" height="33" viewBox="0 0 32 33" fill="none" xmlns="http://www.w3.org/2000/svg">
<path d="M16.0003 29.8333C14.1781 29.8333 12.4559 29.4831 10.8337 28.7827C9.21144 28.0831 7.79499 27.1276 6.58433 25.916C5.37277 24.7053 4.41721 23.2889 3.71766 21.6667C3.01721 20.0444 2.66699 18.3222 2.66699 16.5C2.66699 14.6556 3.01721 12.928 3.71766 11.3173C4.41721 9.70578 5.37277 8.29467 6.58433 7.084C7.79499 5.87245 9.21144 4.91645 10.8337 4.216C12.4559 3.51645 14.1781 3.16667 16.0003 3.16667C17.8448 3.16667 19.5723 3.51645 21.183 4.216C22.7945 4.91645 24.2057 5.87245 25.4163 7.084C26.6279 8.29467 27.5834 9.70578 28.283 11.3173C28.9834 12.928 29.3337 14.6556 29.3337 16.5C29.3337 18.3222 28.9834 20.0444 28.283 21.6667C27.5834 23.2889 26.6279 24.7053 25.4163 25.916C24.2057 27.1276 22.7945 28.0831 21.183 28.7827C19.5723 29.4831 17.8448 29.8333 16.0003 29.8333ZM16.0003 27.1C16.5781 26.3 17.0781 25.4667 17.5003 24.6C17.9225 23.7333 18.267 22.8111 18.5337 21.8333H13.467C13.7337 22.8111 14.0781 23.7333 14.5003 24.6C14.9225 25.4667 15.4225 26.3 16.0003 27.1ZM12.5337 26.5667C12.1337 25.8333 11.7839 25.072 11.4843 24.2827C11.1839 23.4942 10.9337 22.6778 10.7337 21.8333H6.80032C7.44477 22.9444 8.2501 23.9111 9.21633 24.7333C10.1834 25.5556 11.2892 26.1667 12.5337 26.5667ZM19.467 26.5667C20.7114 26.1667 21.8168 25.5556 22.783 24.7333C23.7501 23.9111 24.5559 22.9444 25.2003 21.8333H21.267C21.067 22.6778 20.8172 23.4942 20.5177 24.2827C20.2172 25.072 19.867 25.8333 19.467 26.5667ZM5.66699 19.1667H10.2003C10.1337 18.7222 10.0834 18.2831 10.0497 17.8493C10.0168 17.4164 10.0003 16.9667 10.0003 16.5C10.0003 16.0333 10.0168 15.5836 10.0497 15.1507C10.0834 14.7169 10.1337 14.2778 10.2003 13.8333H5.66699C5.55588 14.2778 5.47233 14.7169 5.41633 15.1507C5.36121 15.5836 5.33366 16.0333 5.33366 16.5C5.33366 16.9667 5.36121 17.4164 5.41633 17.8493C5.47233 18.2831 5.55588 18.7222 5.66699 19.1667ZM12.867 19.1667H19.1337C19.2003 18.7222 19.2505 18.2831 19.2843 17.8493C19.3172 17.4164 19.3337 16.9667 19.3337 16.5C19.3337 16.0333 19.3172 15.5836 19.2843 15.1507C19.2505 14.7169 19.2003 14.2778 19.1337 13.8333H12.867C12.8003 14.2778 12.7505 14.7169 12.7177 15.1507C12.6839 15.5836 12.667 16.0333 12.667 16.5C12.667 16.9667 12.6839 17.4164 12.7177 17.8493C12.7505 18.2831 12.8003 18.7222 12.867 19.1667ZM21.8003 19.1667H26.3337C26.4448 18.7222 26.5283 18.2831 26.5843 17.8493C26.6394 17.4164 26.667 16.9667 26.667 16.5C26.667 16.0333 26.6394 15.5836 26.5843 15.1507C26.5283 14.7169 26.4448 14.2778 26.3337 13.8333H21.8003C21.867 14.2778 21.9168 14.7169 21.9497 15.1507C21.9834 15.5836 22.0003 16.0333 22.0003 16.5C22.0003 16.9667 21.9834 17.4164 21.9497 17.8493C21.9168 18.2831 21.867 18.7222 21.8003 19.1667ZM21.267 11.1667H25.2003C24.5559 10.0556 23.7501 9.08889 22.783 8.26667C21.8168 7.44445 20.7114 6.83333 19.467 6.43333C19.867 7.16667 20.2172 7.92756 20.5177 8.716C20.8172 9.50533 21.067 10.3222 21.267 11.1667ZM13.467 11.1667H18.5337C18.267 10.1889 17.9225 9.26667 17.5003 8.4C17.0781 7.53333 16.5781 6.7 16.0003 5.9C15.4225 6.7 14.9225 7.53333 14.5003 8.4C14.0781 9.26667 13.7337 10.1889 13.467 11.1667ZM6.80032 11.1667H10.7337C10.9337 10.3222 11.1839 9.50533 11.4843 8.716C11.7839 7.92756 12.1337 7.16667 12.5337 6.43333C11.2892 6.83333 10.1834 7.44445 9.21633 8.26667C8.2501 9.08889 7.44477 10.0556 6.80032 11.1667Z" fill="#141414"/>
</svg>
