<svg width="13" height="16" viewBox="0 0 13 16" fill="none" xmlns="http://www.w3.org/2000/svg">
<path d="M7.57718 14.9C7.42919 15.1808 7.16964 15.3874 6.86153 15.468H6.83085L6.78043 15.4785C6.71973 15.4911 6.65802 15.4983 6.59605 15.5C6.17095 15.4955 5.80267 15.2534 5.61807 14.9H7.57718ZM2.02356 11.6472L2.29995 11.509V11.2V6.8V6.79067L2.2996 6.78134C2.26082 5.74262 2.49473 4.7119 2.978 3.79173C3.43216 2.99276 4.20587 2.42553 5.10472 2.2329L5.49995 2.1482V1.744V0.5H7.69995V1.744V2.13894L8.08415 2.23041C8.99197 2.44654 9.68051 2.94148 10.1512 3.68503C10.6284 4.43886 10.9 5.47908 10.9 6.8V11.2V11.509L11.1763 11.6472L12.4999 12.309V13.1H0.699951V12.309L2.02356 11.6472Z" fill="white" stroke="#4C4C4C"/>
</svg>
