<svg width="32" height="33" viewBox="0 0 32 33" fill="none" xmlns="http://www.w3.org/2000/svg">
<rect y="0.5" width="32" height="32" rx="8.16761" fill="#3F3849"/>
<path fill-rule="evenodd" clip-rule="evenodd" d="M15.975 11.2611C16.1816 11.0522 16.4617 10.9348 16.7537 10.9348C17.0458 10.9348 17.3259 11.0522 17.5325 11.2611L21.9384 15.7189C22.1448 15.9278 22.2608 16.2113 22.2608 16.5068C22.2608 16.8023 22.1448 17.0857 21.9384 17.2947L17.5325 21.7524C17.3247 21.9554 17.0465 22.0677 16.7577 22.0652C16.4689 22.0627 16.1926 21.9455 15.9884 21.7388C15.7842 21.5322 15.6684 21.2527 15.6658 20.9605C15.6633 20.6683 15.7744 20.3868 15.975 20.1766L18.5007 17.6212H10.1449C9.8528 17.6212 9.57264 17.5038 9.36607 17.2948C9.1595 17.0858 9.04346 16.8023 9.04346 16.5068C9.04346 16.2112 9.1595 15.9277 9.36607 15.7187C9.57264 15.5097 9.8528 15.3923 10.1449 15.3923H18.5007L15.975 12.8369C15.7685 12.6279 15.6525 12.3445 15.6525 12.049C15.6525 11.7535 15.7685 11.4701 15.975 11.2611Z" fill="#FFC6BC"/>
</svg>
