<svg width="32" height="32" viewBox="0 0 32 32" fill="none" xmlns="http://www.w3.org/2000/svg">
<g clip-path="url(#clip0_1_1560)">
<path fill-rule="evenodd" clip-rule="evenodd" d="M28.9777 16.776L28.9757 16.788C28.9611 16.8096 28.9428 16.8285 28.9217 16.844C28.7687 16.9556 28.583 17.0132 28.3937 17.008H22.0217C15.7857 17.008 12.6617 24.548 17.0697 28.956C14.4288 29.1743 11.7843 28.5803 9.49039 27.2536C7.1965 25.9269 5.36283 23.9309 4.23504 21.5329C3.10725 19.135 2.7392 16.4496 3.18021 13.8367C3.62122 11.2237 4.85022 8.80792 6.70256 6.91295C8.5549 5.01798 10.9421 3.73434 13.5444 3.23401C16.1466 2.73367 18.8396 3.04053 21.2626 4.11348C23.6856 5.18643 25.7228 6.97422 27.1013 9.23734C28.4799 11.5005 29.1339 14.1308 28.9757 16.776H28.9777ZM28.3937 20.008C30.2197 20.008 31.8657 18.772 31.9737 16.95C32.1689 13.6693 31.349 10.4081 29.6255 7.60971C27.902 4.81134 25.3587 2.61159 22.3411 1.30949C19.3235 0.0073874 15.9782 -0.333885 12.7599 0.332065C9.54153 0.998015 6.60635 2.63888 4.35333 5.03159C2.10032 7.4243 0.638774 10.4528 0.167396 13.7053C-0.303982 16.9578 0.237674 20.2766 1.71873 23.2105C3.19978 26.1444 5.54838 28.551 8.44524 30.1032C11.3421 31.6554 14.6467 32.2779 17.9097 31.886C20.3957 31.592 20.9637 28.608 19.1917 26.836C16.6717 24.316 18.4577 20.008 22.0217 20.008H28.3937ZM19.9997 10C19.9997 10.5304 19.789 11.0391 19.414 11.4142C19.0389 11.7893 18.5302 12 17.9997 12C17.4693 12 16.9606 11.7893 16.5855 11.4142C16.2105 11.0391 15.9997 10.5304 15.9997 10C15.9997 9.46957 16.2105 8.96086 16.5855 8.58579C16.9606 8.21072 17.4693 8 17.9997 8C18.5302 8 19.0389 8.21072 19.414 8.58579C19.789 8.96086 19.9997 9.46957 19.9997 10ZM11.9997 14C12.5302 14 13.0389 13.7893 13.414 13.4142C13.789 13.0391 13.9997 12.5304 13.9997 12C13.9997 11.4696 13.789 10.9609 13.414 10.5858C13.0389 10.2107 12.5302 10 11.9997 10C11.4693 10 10.9606 10.2107 10.5855 10.5858C10.2105 10.9609 9.99975 11.4696 9.99975 12C9.99975 12.5304 10.2105 13.0391 10.5855 13.4142C10.9606 13.7893 11.4693 14 11.9997 14ZM11.9997 18C11.9997 18.5304 11.789 19.0391 11.414 19.4142C11.0389 19.7893 10.5302 20 9.99975 20C9.46932 20 8.96061 19.7893 8.58554 19.4142C8.21046 19.0391 7.99975 18.5304 7.99975 18C7.99975 17.4696 8.21046 16.9609 8.58554 16.5858C8.96061 16.2107 9.46932 16 9.99975 16C10.5302 16 11.0389 16.2107 11.414 16.5858C11.789 16.9609 11.9997 17.4696 11.9997 18Z" fill="#141414"/>
</g>
<defs>
<clipPath id="clip0_1_1560">
<rect width="32" height="32" fill="white"/>
</clipPath>
</defs>
</svg>
