<svg width="28" height="28" viewBox="0 0 28 28" fill="none" xmlns="http://www.w3.org/2000/svg">
<path d="M14.0003 0.666672C6.64033 0.666672 0.666992 6.64 0.666992 14C0.666992 21.36 6.64033 27.3333 14.0003 27.3333C21.3603 27.3333 27.3337 21.36 27.3337 14C27.3337 6.64 21.3603 0.666672 14.0003 0.666672ZM15.3337 23.3333H12.667V20.6667H15.3337V23.3333ZM18.0937 13L16.8937 14.2267C15.9337 15.2 15.3337 16 15.3337 18H12.667V17.3333C12.667 15.8667 13.267 14.5333 14.227 13.56L15.8803 11.88C16.3737 11.4 16.667 10.7333 16.667 10C16.667 8.53334 15.467 7.33334 14.0003 7.33334C12.5337 7.33334 11.3337 8.53334 11.3337 10H8.66699C8.66699 7.05334 11.0537 4.66667 14.0003 4.66667C16.947 4.66667 19.3337 7.05334 19.3337 10C19.3337 11.1733 18.8537 12.24 18.0937 13Z" fill="#141414"/>
</svg>
